Land_normalized_pl06_filtered_grf
version=1
nRows=15
nColumns=37
inDegrees=yes
endheader
time		1_ground_force_vx		1_ground_force_vy		1_ground_force_vz		1_ground_force_px		1_ground_force_py		1_ground_force_pz		1_ground_torque_x		1_ground_torque_y		1_ground_torque_z		2_ground_force_vx		2_ground_force_vy		2_ground_force_vz		2_ground_force_px		2_ground_force_py		2_ground_force_pz		2_ground_torque_x		2_ground_torque_y		2_ground_torque_z		3_ground_force_vx		3_ground_force_vy		3_ground_force_vz		3_ground_force_px		3_ground_force_py		3_ground_force_pz		3_ground_torque_x		3_ground_torque_y		3_ground_torque_z		4_ground_force_vx		4_ground_force_vy		4_ground_force_vz		4_ground_force_px		4_ground_force_py		4_ground_force_pz		4_ground_torque_x		4_ground_torque_y		4_ground_torque_z		
1.059500		-93.701050		897.730279		393.095099		0.145312		0.000000		0.193600		-1.707151		16.355861		7.161849		78.998845		800.142392		351.663665		-0.196303		0.000000		0.208142		5.037115		51.018588		22.422738		-0.169419		-0.300722		-1.208804		0.413128		1.262798		1.873744		0.030065		-0.005174		0.028137		-1.149547		-1.965206		-2.256550		-0.353552		1.256009		1.901131		0.023477		-0.028721		0.040531		
1.062227		-102.478447		883.573073		386.189284		0.147593		0.000000		0.190384		-1.712665		14.767266		6.454487		77.192086		798.826701		364.655423		-0.197479		0.000000		0.204462		5.082670		52.598594		24.010708		-0.134001		-0.321474		-1.164637		0.413142		1.262797		1.873675		0.031543		-0.002563		0.028665		-1.119631		-1.969060		-2.199054		-0.353539		1.255983		1.901049		0.021530		-0.031631		0.041070		
1.064955		-106.882036		883.113137		375.359129		0.149484		0.000000		0.189500		-1.706658		14.101284		5.993638		72.527954		811.860474		369.507738		-0.196158		0.000000		0.204188		4.760989		53.293142		24.255700		-0.085239		-0.345270		-1.119164		0.413155		1.262794		1.873607		0.033585		-0.000305		0.029028		-1.090807		-1.962168		-2.167268		-0.353531		1.255956		1.900969		0.020173		-0.034904		0.041616		
1.067682		-106.997204		893.995906		361.968724		0.150813		0.000000		0.190546		-1.708445		14.274689		5.779604		66.558559		835.778469		367.176992		-0.193188		0.000000		0.206622		4.241090		53.253408		23.395829		-0.028762		-0.369501		-1.074881		0.413165		1.262788		1.873542		0.036000		0.001526		0.029110		-1.068776		-1.944409		-2.160558		-0.353529		1.255931		1.900892		0.019474		-0.038341		0.042110		
1.070409		-103.379471		912.902454		347.473358		0.151576		0.000000		0.192858		-1.711331		15.112339		5.752041		60.640766		866.567110		359.153712		-0.189530		0.000000		0.210750		3.680337		52.590767		21.796944		0.028822		-0.392092		-1.033522		0.413174		1.262778		1.873480		0.038552		0.002956		0.028863		-1.058823		-1.916738		-2.175166		-0.353532		1.255906		1.900818		0.019415		-0.041684		0.042456		
1.073136		-96.810355		936.409479		333.139639		0.151862		0.000000		0.195784		-1.697228		16.417381		5.840525		55.714247		900.505529		347.020318		-0.185913		0.000000		0.215624		3.181299		51.416604		19.814657		0.081282		-0.411314		-0.995547		0.413181		1.262765		1.873420		0.041008		0.004085		0.028288		-1.064677		-1.880653		-2.205306		-0.353538		1.255884		1.900746		0.019927		-0.044665		0.042550		
1.075864		-88.272357		961.199113		319.951814		0.151798		0.000000		0.198795		-1.652017		17.989855		5.988066		52.284543		934.335513		332.417055		-0.182776		0.000000		0.220498		2.791713		49.886527		17.749242		0.123754		-0.425612		-0.960019		0.413188		1.262750		1.873365		0.043172		0.005054		0.027435		-1.087260		-1.838368		-2.243055		-0.353546		1.255866		1.900678		0.020901		-0.047073		0.042328		
1.078591		-78.796781		984.441576		308.557649		0.151503		0.000000		0.201521		-1.572882		19.651553		6.159364		50.513935		965.531040		316.835946		-0.180302		0.000000		0.224882		2.520896		48.184033		15.811848		0.153492		-0.433619		-0.925060		0.413194		1.262732		1.873312		0.044908		0.006008		0.026389		-1.124463		-1.792719		-2.279269		-0.353557		1.255851		1.900613		0.022203		-0.048782		0.041775		
1.081318		-69.378547		1003.956322		299.281944		0.151082		0.000000		0.203752		-1.468196		21.247169		6.333716		50.335746		992.356954		301.535221		-0.178504		0.000000		0.228511		2.358368		46.494346		14.128146		0.170204		-0.434408		-0.888580		0.413200		1.262714		1.873265		0.046154		0.007068		0.025267		-1.171335		-1.747111		-2.304593		-0.353567		1.255840		1.900552		0.023685		-0.049763		0.040936		
1.084045		-60.888418		1018.357938		292.135303		0.150617		0.000000		0.205397		-1.354022		22.646372		6.496517		51.522541		1013.915549		287.475115		-0.177302		0.000000		0.231300		2.285376		44.974168		12.751619		0.176003		-0.427903		-0.849082		0.413204		1.262696		1.873222		0.046911		0.008306		0.024211		-1.220746		-1.705171		-2.311139		-0.353578		1.255832		1.900494		0.025186		-0.050070		0.039910		
1.086773		-54.027018		1026.939578		286.916950		0.150177		0.000000		0.206440		-1.249257		23.746511		6.634506		53.768599		1029.923000		275.330599		-0.176587		0.000000		0.233270		2.283214		43.734851		11.691888		0.174472		-0.414901		-0.806156		0.413207		1.262680		1.873185		0.047231		0.009744		0.023383		-1.264601		-1.670306		-2.293559		-0.353587		1.255827		1.900442		0.026552		-0.049804		0.038814		
1.089500		-49.223226		1029.796858		283.218208		0.149810		0.000000		0.206942		-1.170703		24.492221		6.735933		56.679755		1040.737803		265.442261		-0.176233		0.000000		0.234528		2.332272		42.824521		10.922480		0.170009		-0.397270		-0.760795		0.413208		1.262666		1.873155		0.047197		0.011357		0.022925		-1.295341		-1.644922		-2.250927		-0.353595		1.255825		1.900394		0.027651		-0.049091		0.037764		
1.092227		-46.702540		1027.428817		280.586801		0.149553		0.000000		0.206989		-1.130105		24.861701		6.789631		59.834510		1046.919149		257.955425		-0.176130		0.000000		0.235196		2.414403		42.244844		10.408944		0.166741		-0.377465		-0.715153		0.413208		1.262656		1.873131		0.046902		0.013094		0.022955		-1.306690		-1.630413		-2.185837		-0.353600		1.255824		1.900354		0.028388		-0.048036		0.036865		
1.094955		-46.372199		1020.883234		278.542035		0.149424		0.000000		0.206712		-1.130131		24.879814		6.788312		62.791678		1049.321385		252.749934		-0.176177		0.000000		0.235422		2.509961		41.944375		10.103140		0.167844		-0.358285		-0.672241		0.413206		1.262649		1.873117		0.046443		0.014891		0.023504		-1.295689		-1.626414		-2.104943		-0.353604		1.255825		1.900321		0.028732		-0.046736		0.036191		
1.097682		-47.982883		1011.316400		276.689308		0.149428		0.000000		0.206252		-1.166580		24.587638		6.727010		65.134733		1048.697122		249.650188		-0.176294		0.000000		0.235328		2.599537		41.853640		9.963571		0.175112		-0.342361		-0.635555		0.413203		1.262646		1.873111		0.045900		0.016690		0.024543		-1.262301		-1.631570		-2.016293		-0.353605		1.255825		1.900297		0.028699		-0.045263		0.035811		
